<?xml version="1.0" encoding="UTF-8" standalone="no"?>
<svg
   width="297.13574"
   height="152.63449"
   viewBox="0 0 297.13574 305.26898"
   fill="none"
   version="1.1"
   id="svg155"
   sodipodi:docname="RecoilEngine_Logo_Dark.svg"
   inkscape:version="1.2.2 (b0a8486541, 2022-12-01)"
   xmlns:inkscape="http://www.inkscape.org/namespaces/inkscape"
   xmlns:sodipodi="http://sodipodi.sourceforge.net/DTD/sodipodi-0.dtd"
   xmlns="http://www.w3.org/2000/svg"
   xmlns:svg="http://www.w3.org/2000/svg">
  <sodipodi:namedview
     id="namedview157"
     pagecolor="#ffffff"
     bordercolor="#000000"
     borderopacity="0.25"
     inkscape:showpageshadow="2"
     inkscape:pageopacity="0.0"
     inkscape:pagecheckerboard="0"
     inkscape:deskcolor="#d1d1d1"
     showgrid="false"
     inkscape:zoom="1.8330187"
     inkscape:cx="151.93517"
     inkscape:cy="71.466812"
     inkscape:window-width="1708"
     inkscape:window-height="1355"
     inkscape:window-x="20"
     inkscape:window-y="20"
     inkscape:window-maximized="0"
     inkscape:current-layer="svg155" />
  <g
     filter="url(#filter0_dd_102_26)"
     id="g14"
     style="fill:#000000"
     transform="translate(-244.9245,-105.722)">
    <path
       d="m 287.853,301.674 -20.029,-23.862 h 19.454 l 15.908,18.783 v 5.079 z m -53.57,0 v -68.903 h 54.72 c 2.619,0 4.983,0.639 7.091,1.916 2.172,1.278 3.897,3.003 5.175,5.175 1.342,2.172 2.013,4.536 2.013,7.092 v 17.824 c 0,2.556 -0.671,4.92 -2.013,7.092 -1.278,2.172 -3.003,3.897 -5.175,5.175 -2.108,1.278 -4.472,1.917 -7.091,1.917 l -39.866,0.095 v 22.617 z m 14.854,-37.662 h 39.099 v -16.387 h -39.099 z"
       fill="url(#paint0_linear_102_26)"
       id="path2"
       style="fill:#000000" />
    <path
       d="m 323.137,301.674 v -68.999 h 63.728 v 14.95 h -48.682 v 12.074 h 39.195 v 14.95 h -39.195 v 12.075 h 48.682 v 14.95 z"
       fill="url(#paint1_linear_102_26)"
       id="path4"
       style="fill:#000000" />
    <path
       d="m 420.083,301.674 c -2.619,0 -5.015,-0.639 -7.187,-1.917 -2.109,-1.278 -3.802,-2.971 -5.079,-5.079 -1.278,-2.172 -1.917,-4.568 -1.917,-7.187 v -40.633 c 0,-2.619 0.639,-4.983 1.917,-7.092 1.277,-2.172 2.97,-3.897 5.079,-5.174 2.172,-1.278 4.568,-1.917 7.187,-1.917 h 54.624 v 14.95 h -50.791 c -1.022,0 -1.821,0.255 -2.396,0.766 -0.511,0.511 -0.766,1.31 -0.766,2.396 v 32.774 c 0,1.023 0.255,1.821 0.766,2.396 0.575,0.511 1.374,0.767 2.396,0.767 h 50.791 v 14.95 z"
       fill="url(#paint2_linear_102_26)"
       id="path6"
       style="fill:#000000" />
    <path
       d="m 508.273,301.674 c -2.555,0 -4.919,-0.639 -7.091,-1.917 -2.172,-1.278 -3.897,-3.003 -5.175,-5.175 -1.278,-2.172 -1.917,-4.536 -1.917,-7.091 v -40.633 c 0,-2.619 0.639,-4.983 1.917,-7.092 1.278,-2.172 3.003,-3.897 5.175,-5.174 2.172,-1.278 4.536,-1.917 7.091,-1.917 h 40.633 c 2.555,0 4.887,0.639 6.996,1.917 2.172,1.277 3.897,3.002 5.175,5.174 1.341,2.109 2.012,4.473 2.012,7.092 v 40.633 c 0,2.555 -0.671,4.919 -2.012,7.091 -1.278,2.172 -3.003,3.897 -5.175,5.175 -2.109,1.278 -4.441,1.917 -6.996,1.917 z m 0.671,-14.95 h 39.1 v -39.099 h -39.1 z"
       fill="url(#paint3_linear_102_26)"
       id="path8"
       style="fill:#000000" />
    <path
       d="m 580.83,301.674 v -68.999 h 14.662 v 68.999 z"
       fill="url(#paint4_linear_102_26)"
       id="path10"
       style="fill:#000000" />
    <path
       d="m 613.4,301.674 v -69.095 h 14.854 v 54.145 h 54.145 v 14.95 z"
       fill="url(#paint5_linear_102_26)"
       id="path12"
       style="fill:#000000" />
  </g>
  <path
     d="m 168.5445,268.089 v -43.667 h 39.846 v 4.913 h -34.933 v 14.434 h 28.08 v 4.973 h -28.08 v 14.434 h 34.933 v 4.913 z"
     fill="#939393"
     id="path16"
     style="fill:#000000" />
  <path
     d="m 217.8895,268.089 v -43.667 h 6.732 l 32.023,38.087 v -38.087 h 4.912 v 43.667 h -6.732 l -32.022,-38.087 v 38.087 z"
     fill="#939393"
     id="path18"
     style="fill:#000000" />
  <path
     d="m 278.6615,268.089 c -1.334,0 -2.568,-0.324 -3.7,-0.971 -1.091,-0.647 -1.961,-1.516 -2.608,-2.607 -0.646,-1.133 -0.97,-2.366 -0.97,-3.7 V 231.7 c 0,-1.334 0.324,-2.547 0.97,-3.639 0.647,-1.132 1.517,-2.022 2.608,-2.669 1.132,-0.646 2.366,-0.97 3.7,-0.97 h 29.111 c 1.334,0 2.547,0.324 3.639,0.97 1.132,0.647 2.022,1.537 2.668,2.669 0.647,1.092 0.971,2.305 0.971,3.639 v 1.759 h -4.913 V 231.7 c 0,-0.647 -0.242,-1.193 -0.727,-1.638 -0.445,-0.485 -0.991,-0.727 -1.638,-0.727 h -29.111 c -0.647,0 -1.213,0.242 -1.698,0.727 -0.445,0.445 -0.667,0.991 -0.667,1.638 v 29.111 c 0,0.647 0.222,1.213 0.667,1.698 0.485,0.445 1.051,0.667 1.698,0.667 h 29.111 c 0.647,0 1.193,-0.222 1.638,-0.667 0.485,-0.485 0.727,-1.051 0.727,-1.698 v -10.795 h -10.795 v -4.974 h 15.708 v 15.769 c 0,1.334 -0.324,2.567 -0.971,3.7 -0.646,1.091 -1.536,1.96 -2.668,2.607 -1.092,0.647 -2.305,0.971 -3.639,0.971 z"
     fill="#939393"
     id="path20"
     style="fill:#000000" />
  <path
     d="m 325.3655,268.089 v -43.667 h 4.973 v 43.667 z"
     fill="#939393"
     id="path22"
     style="fill:#000000" />
  <path
     d="m 340.7615,268.089 v -43.667 h 6.732 l 32.023,38.087 v -38.087 h 4.912 v 43.667 h -6.732 l -32.022,-38.087 v 38.087 z"
     fill="#939393"
     id="path24"
     style="fill:#000000" />
  <path
     d="m 394.3765,268.089 v -43.667 h 39.846 v 4.913 h -34.933 v 14.434 h 28.08 v 4.973 h -28.08 v 14.434 h 34.933 v 4.913 z"
     fill="#939393"
     id="path26"
     style="fill:#000000" />
  <g
     filter="url(#filter1_dd_102_26)"
     id="g34"
     style="fill:#000000"
     transform="translate(-244.9245,-105.722)">
    <path
       fill-rule="evenodd"
       clip-rule="evenodd"
       d="m 268.727,149.063 c -2.564,-0.165 -5.149,-0.249 -7.754,-0.249 -65.596,0 -118.772,53.176 -118.772,118.772 0,65.596 53.176,118.772 118.772,118.772 2.606,0 5.192,-0.084 7.757,-0.249 -61.983,-3.994 -111.019,-55.532 -111.019,-118.523 0,-62.99 49.035,-114.527 111.016,-118.523 z"
       fill="white"
       id="path28"
       style="fill:#000000" />
    <path
       fill-rule="evenodd"
       clip-rule="evenodd"
       d="m 268.727,149.063 c -2.564,-0.165 -5.149,-0.249 -7.754,-0.249 -65.596,0 -118.772,53.176 -118.772,118.772 0,65.596 53.176,118.772 118.772,118.772 2.606,0 5.192,-0.084 7.757,-0.249 -61.983,-3.994 -111.019,-55.532 -111.019,-118.523 0,-62.99 49.035,-114.527 111.016,-118.523 z"
       fill="white"
       id="path30"
       style="fill:#000000" />
    <path
       fill-rule="evenodd"
       clip-rule="evenodd"
       d="m 268.727,149.063 c -2.564,-0.165 -5.149,-0.249 -7.754,-0.249 -65.596,0 -118.772,53.176 -118.772,118.772 0,65.596 53.176,118.772 118.772,118.772 2.606,0 5.192,-0.084 7.757,-0.249 -61.983,-3.994 -111.019,-55.532 -111.019,-118.523 0,-62.99 49.035,-114.527 111.016,-118.523 z"
       fill="white"
       id="path32"
       style="fill:#000000" />
  </g>
  <g
     filter="url(#filter2_dd_102_26)"
     id="g42"
     style="fill:#000000"
     transform="translate(-244.9245,-105.722)">
    <path
       fill-rule="evenodd"
       clip-rule="evenodd"
       d="m 353.289,162.696 c -1.946,-2.215 -3.977,-4.382 -6.092,-6.496 -53.228,-53.229 -139.528,-53.229 -192.757,0 -53.228,53.228 -53.228,139.528 0,192.757 2.114,2.113 4.28,4.143 6.494,6.089 -47.053,-53.537 -45.022,-135.147 6.092,-186.26 51.115,-51.115 132.727,-53.145 186.263,-6.09 z"
       fill="white"
       id="path36"
       style="fill:#000000" />
    <path
       fill-rule="evenodd"
       clip-rule="evenodd"
       d="m 353.289,162.696 c -1.946,-2.215 -3.977,-4.382 -6.092,-6.496 -53.228,-53.229 -139.528,-53.229 -192.757,0 -53.228,53.228 -53.228,139.528 0,192.757 2.114,2.113 4.28,4.143 6.494,6.089 -47.053,-53.537 -45.022,-135.147 6.092,-186.26 51.115,-51.115 132.727,-53.145 186.263,-6.09 z"
       fill="white"
       id="path38"
       style="fill:#000000" />
    <path
       fill-rule="evenodd"
       clip-rule="evenodd"
       d="m 353.289,162.696 c -1.946,-2.215 -3.977,-4.382 -6.092,-6.496 -53.228,-53.229 -139.528,-53.229 -192.757,0 -53.228,53.228 -53.228,139.528 0,192.757 2.114,2.113 4.28,4.143 6.494,6.089 -47.053,-53.537 -45.022,-135.147 6.092,-186.26 51.115,-51.115 132.727,-53.145 186.263,-6.09 z"
       fill="white"
       id="path40"
       style="fill:#000000" />
  </g>
  <defs
     id="defs153">
    <filter
       id="filter0_dd_102_26"
       x="230.76401"
       y="229.06"
       width="460.43201"
       height="81.410896"
       filterUnits="userSpaceOnUse"
       color-interpolation-filters="sRGB">
      <feFlood
         flood-opacity="0"
         result="BackgroundImageFix"
         id="feFlood44" />
      <feColorMatrix
         in="SourceAlpha"
         type="matrix"
         values="0 0 0 0 0 0 0 0 0 0 0 0 0 0 0 0 0 0 127 0"
         result="hardAlpha"
         id="feColorMatrix46" />
      <feOffset
         dx="3.5189"
         dy="3.5189"
         id="feOffset48" />
      <feGaussianBlur
         stdDeviation="2.63918"
         id="feGaussianBlur50" />
      <feColorMatrix
         type="matrix"
         values="0 0 0 0 0 0 0 0 0 0 0 0 0 0 0 0 0 0 0.55 0"
         id="feColorMatrix52" />
      <feBlend
         mode="normal"
         in2="BackgroundImageFix"
         result="effect1_dropShadow_102_26"
         id="feBlend54" />
      <feColorMatrix
         in="SourceAlpha"
         type="matrix"
         values="0 0 0 0 0 0 0 0 0 0 0 0 0 0 0 0 0 0 127 0"
         result="hardAlpha"
         id="feColorMatrix56" />
      <feOffset
         id="feOffset58" />
      <feGaussianBlur
         stdDeviation="1.75945"
         id="feGaussianBlur60" />
      <feColorMatrix
         type="matrix"
         values="0 0 0 0 0 0 0 0 0 0 0 0 0 0 0 0 0 0 0.6 0"
         id="feColorMatrix62" />
      <feBlend
         mode="normal"
         in2="effect1_dropShadow_102_26"
         result="effect2_dropShadow_102_26"
         id="feBlend64" />
      <feBlend
         mode="normal"
         in="SourceGraphic"
         in2="effect2_dropShadow_102_26"
         result="shape"
         id="feBlend66" />
    </filter>
    <filter
       id="filter1_dd_102_26"
       x="124.607"
       y="138.258"
       width="161.718"
       height="272.733"
       filterUnits="userSpaceOnUse"
       color-interpolation-filters="sRGB">
      <feFlood
         flood-opacity="0"
         result="BackgroundImageFix"
         id="feFlood69" />
      <feColorMatrix
         in="SourceAlpha"
         type="matrix"
         values="0 0 0 0 0 0 0 0 0 0 0 0 0 0 0 0 0 0 127 0"
         result="hardAlpha"
         id="feColorMatrix71" />
      <feOffset
         dy="7.0378"
         id="feOffset73" />
      <feGaussianBlur
         stdDeviation="8.79725"
         id="feGaussianBlur75" />
      <feComposite
         in2="hardAlpha"
         operator="out"
         id="feComposite77" />
      <feColorMatrix
         type="matrix"
         values="0 0 0 0 0 0 0 0 0 0 0 0 0 0 0 0 0 0 0.25 0"
         id="feColorMatrix79" />
      <feBlend
         mode="normal"
         in2="BackgroundImageFix"
         result="effect1_dropShadow_102_26"
         id="feBlend81" />
      <feColorMatrix
         in="SourceAlpha"
         type="matrix"
         values="0 0 0 0 0 0 0 0 0 0 0 0 0 0 0 0 0 0 127 0"
         result="hardAlpha"
         id="feColorMatrix83" />
      <feOffset
         id="feOffset85" />
      <feGaussianBlur
         stdDeviation="1.75945"
         id="feGaussianBlur87" />
      <feColorMatrix
         type="matrix"
         values="0 0 0 0 0 0 0 0 0 0 0 0 0 0 0 0 0 0 0.55 0"
         id="feColorMatrix89" />
      <feBlend
         mode="normal"
         in2="effect1_dropShadow_102_26"
         result="effect2_dropShadow_102_26"
         id="feBlend91" />
      <feBlend
         mode="normal"
         in="SourceGraphic"
         in2="effect2_dropShadow_102_26"
         result="shape"
         id="feBlend93" />
    </filter>
    <filter
       id="filter2_dd_102_26"
       x="96.9245"
       y="105.722"
       width="273.95901"
       height="273.957"
       filterUnits="userSpaceOnUse"
       color-interpolation-filters="sRGB">
      <feFlood
         flood-opacity="0"
         result="BackgroundImageFix"
         id="feFlood96" />
      <feColorMatrix
         in="SourceAlpha"
         type="matrix"
         values="0 0 0 0 0 0 0 0 0 0 0 0 0 0 0 0 0 0 127 0"
         result="hardAlpha"
         id="feColorMatrix98" />
      <feOffset
         dy="7.0378"
         id="feOffset100" />
      <feGaussianBlur
         stdDeviation="8.79725"
         id="feGaussianBlur102" />
      <feComposite
         in2="hardAlpha"
         operator="out"
         id="feComposite104" />
      <feColorMatrix
         type="matrix"
         values="0 0 0 0 0 0 0 0 0 0 0 0 0 0 0 0 0 0 0.25 0"
         id="feColorMatrix106" />
      <feBlend
         mode="normal"
         in2="BackgroundImageFix"
         result="effect1_dropShadow_102_26"
         id="feBlend108" />
      <feColorMatrix
         in="SourceAlpha"
         type="matrix"
         values="0 0 0 0 0 0 0 0 0 0 0 0 0 0 0 0 0 0 127 0"
         result="hardAlpha"
         id="feColorMatrix110" />
      <feOffset
         id="feOffset112" />
      <feGaussianBlur
         stdDeviation="1.75945"
         id="feGaussianBlur114" />
      <feColorMatrix
         type="matrix"
         values="0 0 0 0 0 0 0 0 0 0 0 0 0 0 0 0 0 0 0.55 0"
         id="feColorMatrix116" />
      <feBlend
         mode="normal"
         in2="effect1_dropShadow_102_26"
         result="effect2_dropShadow_102_26"
         id="feBlend118" />
      <feBlend
         mode="normal"
         in="SourceGraphic"
         in2="effect2_dropShadow_102_26"
         result="shape"
         id="feBlend120" />
    </filter>
    <linearGradient
       id="paint0_linear_102_26"
       x1="306.43701"
       y1="246.81799"
       x2="312.67899"
       y2="318.51999"
       gradientUnits="userSpaceOnUse">
      <stop
         stop-color="#BBBBBB"
         id="stop123" />
      <stop
         offset="0.770833"
         stop-color="white"
         id="stop125" />
    </linearGradient>
    <linearGradient
       id="paint1_linear_102_26"
       x1="306.43701"
       y1="246.81799"
       x2="312.67899"
       y2="318.51999"
       gradientUnits="userSpaceOnUse">
      <stop
         stop-color="#BBBBBB"
         id="stop128" />
      <stop
         offset="0.770833"
         stop-color="white"
         id="stop130" />
    </linearGradient>
    <linearGradient
       id="paint2_linear_102_26"
       x1="306.43701"
       y1="246.81799"
       x2="312.67899"
       y2="318.51999"
       gradientUnits="userSpaceOnUse">
      <stop
         stop-color="#BBBBBB"
         id="stop133" />
      <stop
         offset="0.770833"
         stop-color="white"
         id="stop135" />
    </linearGradient>
    <linearGradient
       id="paint3_linear_102_26"
       x1="306.43701"
       y1="246.81799"
       x2="312.67899"
       y2="318.51999"
       gradientUnits="userSpaceOnUse">
      <stop
         stop-color="#BBBBBB"
         id="stop138" />
      <stop
         offset="0.770833"
         stop-color="white"
         id="stop140" />
    </linearGradient>
    <linearGradient
       id="paint4_linear_102_26"
       x1="306.43701"
       y1="246.81799"
       x2="312.67899"
       y2="318.51999"
       gradientUnits="userSpaceOnUse">
      <stop
         stop-color="#BBBBBB"
         id="stop143" />
      <stop
         offset="0.770833"
         stop-color="white"
         id="stop145" />
    </linearGradient>
    <linearGradient
       id="paint5_linear_102_26"
       x1="306.43701"
       y1="246.81799"
       x2="312.67899"
       y2="318.51999"
       gradientUnits="userSpaceOnUse">
      <stop
         stop-color="#BBBBBB"
         id="stop148" />
      <stop
         offset="0.770833"
         stop-color="white"
         id="stop150" />
    </linearGradient>
  </defs>
</svg>
